<svg width="918" height="88" viewBox="0 0 918 88" fill="none" xmlns="http://www.w3.org/2000/svg">
<path d="M918 44C918 51.7552 918 60.3365 914.858 68.0267C911.723 75.6374 905.704 81.6899 898.138 84.8401C890.49 88 881.954 88 874.244 88H43.7557C36.0435 88 27.5098 88 19.8624 84.8401C12.2939 81.6874 6.2751 75.635 3.14234 68.0267C-2.38419e-07 60.3365 0 51.7552 0 44C0 36.2448 -2.38419e-07 27.6635 3.14234 19.9733C6.2751 12.3626 12.2939 6.31014 19.8624 3.15989C27.5098 0 36.0435 0 43.7557 0H874.244C881.957 0 890.49 0 898.138 3.15989C905.706 6.31255 911.725 12.365 914.858 19.9733C918 27.6635 918 36.2472 918 44Z" fill="white"/>
</svg>
