<svg width="500" height="234" viewBox="0 0 500 234" fill="none" xmlns="http://www.w3.org/2000/svg">
<g clip-path="url(#clip0_112_2)">
<mask id="mask0_112_2" style="mask-type:luminance" maskUnits="userSpaceOnUse" x="0" y="0" width="500" height="234">
<path d="M500 0H0V233.874H500V0Z" fill="white"/>
</mask>
<g mask="url(#mask0_112_2)">
<path d="M125.886 1.86426H156.076V140.767H125.886V1.86426Z" fill="black"/>
<path d="M72.983 67.0927H29.7123V34.8229L72.983 34.6748V67.0927ZM-0.000244141 7.18424V94.591H102.875V7.02832L-0.000244141 7.18424Z" fill="black"/>
<path d="M51.1999 146.07H81.5673V206.22H156.96V233.305H50.8335L51.1999 146.07Z" fill="black"/>
<path d="M263.217 206.22H218.948L219.268 173.599H263.217V206.22ZM189.579 146.07L188.713 233.874H292.937V146.07H189.579Z" fill="black"/>
<path d="M178.922 106.768V134.087H303.432V107.259L178.922 106.768Z" fill="black"/>
<mask id="mask1_112_2" style="mask-type:luminance" maskUnits="userSpaceOnUse" x="-2870" y="-2225" width="6238" height="4679">
<path d="M-2869.59 -2224.9H3367.63V2453.01H-2869.59V-2224.9Z" fill="white"/>
</mask>
<g mask="url(#mask1_112_2)">
<path d="M219.461 51.3313C219.461 38.927 229.597 28.8461 242.04 28.8461C248.014 28.8399 253.746 31.2039 257.979 35.4194C262.212 39.6348 264.6 45.3574 264.619 51.3313C264.6 57.3031 262.212 63.0233 257.978 67.235C253.744 71.4467 248.012 73.8055 242.04 73.7931C236.068 73.8055 230.336 71.4467 226.102 67.235C221.868 63.0233 219.48 57.3031 219.461 51.3313ZM190.606 51.3313C190.606 79.6405 213.676 102.648 242.04 102.648C270.388 102.648 293.458 79.6405 293.458 51.3313C293.458 22.9832 270.388 -0.000976562 242.04 -0.000976562C213.676 -0.000976562 190.606 22.9832 190.606 51.3313Z" fill="black"/>
<path d="M365.342 7.33594H392.692L439.3 82.6581L415.201 101.066L378.877 36.3078L341.758 101.066L317.37 83.4611L365.342 7.33594Z" fill="black"/>
<path d="M449.591 1.88574H479.413V35.7538H500.004V65.5833H478.898V140.89H448.515L449.591 1.88574Z" fill="black"/>
</g>
</g>
</g>
<defs>
<clipPath id="clip0_112_2">
<rect width="500" height="234" fill="white"/>
</clipPath>
</defs>
</svg>
