<svg width="500" height="234" viewBox="0 0 500 234" fill="none" xmlns="http://www.w3.org/2000/svg">
<g clip-path="url(#clip0_18_2)">
<path d="M125.886 1.86461H156.076V140.767H125.886V1.86461Z" fill="white"/>
<path d="M72.983 67.093H29.7123V34.8232L72.983 34.6751V67.093ZM-0.000213623 7.18452V94.5913H102.875V7.0286L-0.000213623 7.18452Z" fill="white"/>
<path d="M51.2 146.07H81.5674V206.22H156.96V233.305H50.8336L51.2 146.07Z" fill="white"/>
<path d="M263.217 206.22H218.948L219.268 173.599H263.217V206.22ZM189.579 146.07L188.713 233.874H292.937V146.07H189.579Z" fill="white"/>
<path d="M178.922 106.768V134.087H303.432V107.259L178.922 106.768Z" fill="white"/>
<mask id="mask0_18_2" style="mask-type:luminance" maskUnits="userSpaceOnUse" x="-2870" y="-2225" width="6238" height="4679">
<path d="M-2869.59 -2224.9H3367.63V2453.01H-2869.59V-2224.9Z" fill="white"/>
</mask>
<g mask="url(#mask0_18_2)">
<path d="M219.461 51.331C219.461 38.9267 229.597 28.8458 242.04 28.8458C248.014 28.8396 253.746 31.2036 257.979 35.4191C262.212 39.6345 264.6 45.3571 264.619 51.331C264.6 57.3028 262.212 63.023 257.978 67.2347C253.744 71.4464 248.012 73.8052 242.04 73.7928C236.068 73.8052 230.336 71.4464 226.102 67.2347C221.868 63.023 219.48 57.3028 219.461 51.331ZM190.606 51.331C190.606 79.6402 213.676 102.648 242.04 102.648C270.388 102.648 293.458 79.6402 293.458 51.331C293.458 22.9829 270.388 -0.00128317 242.04 -0.00128317C213.676 -0.00128317 190.606 22.9829 190.606 51.331Z" fill="white"/>
<path d="M365.342 7.33542H392.692L439.3 82.6576L415.201 101.065L378.877 36.3073L341.758 101.065L317.37 83.4606L365.342 7.33542Z" fill="white"/>
<path d="M449.591 1.88524H479.413V35.7533H500.004V65.5828H478.898V140.889H448.515L449.591 1.88524Z" fill="white"/>
</g>
</g>
<defs>
<clipPath id="clip0_18_2">
<rect width="500" height="233.874" fill="white"/>
</clipPath>
</defs>
</svg>
