<?xml version="1.0" standalone="no"?><svg xmlns="http://www.w3.org/2000/svg" viewBox="0 0 1440 320"><path fill="#0099ff" fill-opacity="1" d="M0,256L34.3,218.7C68.6,181,137,107,206,64C274.3,21,343,11,411,53.3C480,96,549,192,617,208C685.7,224,754,160,823,154.7C891.4,149,960,203,1029,213.3C1097.1,224,1166,192,1234,192C1302.9,192,1371,224,1406,240L1440,256L1440,320L1405.7,320C1371.4,320,1303,320,1234,320C1165.7,320,1097,320,1029,320C960,320,891,320,823,320C754.3,320,686,320,617,320C548.6,320,480,320,411,320C342.9,320,274,320,206,320C137.1,320,69,320,34,320L0,320Z"></path></svg>